<?xml version="1.0" standalone="no"?>
<!DOCTYPE svg PUBLIC "-//W3C//DTD SVG 20010904//EN"
 "http://www.w3.org/TR/2001/REC-SVG-20010904/DTD/svg10.dtd">
<svg version="1.0" xmlns="http://www.w3.org/2000/svg"
 width="500.000000pt" height="952.000000pt" viewBox="0 0 500.000000 952.000000"
 preserveAspectRatio="xMidYMid meet">
<metadata>
Created by potrace 1.15, written by Peter Selinger 2001-2017
</metadata>
<g transform="translate(0.000000,952.000000) scale(0.100000,-0.100000)"
fill="#000000" stroke="none">
<path d="M2408 8836 c-113 -68 -384 -299 -596 -509 -203 -201 -304 -325 -357
-439 -52 -111 -32 -153 169 -355 98 -99 158 -167 170 -195 27 -59 32 -284 16
-668 -10 -265 -10 -301 4 -328 19 -37 67 -78 122 -105 37 -18 42 -25 47 -62 5
-32 1 -52 -18 -90 -53 -104 -15 -252 73 -286 19 -8 23 -15 20 -46 -3 -37 -5
-39 -105 -89 -103 -52 -250 -103 -358 -125 -86 -17 -257 -15 -339 5 -138 33
-280 126 -369 244 -55 72 -107 158 -107 176 0 51 269 71 384 28 105 -39 158
-96 160 -174 1 -45 -18 -67 -65 -77 -45 -9 -49 -35 -8 -56 41 -22 88 -13 121
23 39 42 48 66 48 129 0 48 -6 68 -29 104 -49 79 -141 142 -263 183 -90 31
-158 33 -284 10 -136 -25 -127 -27 -141 36 -33 159 -9 311 111 694 101 322 90
464 -43 589 -102 96 -207 116 -318 62 -67 -33 -142 -104 -172 -163 -26 -51
-26 -69 -1 -77 24 -8 52 6 114 58 62 51 112 77 150 77 46 0 115 -38 141 -79
54 -83 40 -183 -65 -476 -84 -232 -116 -341 -136 -465 -19 -111 -14 -263 10
-353 l16 -59 -30 -37 c-82 -105 -130 -262 -130 -433 0 -119 23 -221 76 -328
40 -80 61 -109 134 -180 47 -47 115 -102 150 -123 179 -104 397 -147 590 -117
140 22 323 100 449 192 40 29 83 60 94 68 25 18 33 32 -86 -155 -296 -465
-506 -711 -773 -911 -66 -48 -160 -118 -209 -155 -224 -166 -348 -315 -432
-519 -109 -263 -109 -544 1 -765 169 -340 537 -422 861 -190 201 143 312 400
276 636 -20 125 -78 226 -156 267 -105 55 -291 14 -352 -79 -31 -48 -30 -122
2 -127 16 -2 25 7 39 39 24 53 67 73 150 67 54 -4 62 -8 97 -45 50 -54 62
-103 57 -233 -5 -139 -30 -194 -130 -294 -161 -158 -353 -205 -515 -126 -71
35 -109 78 -153 172 -97 207 -75 464 61 705 72 128 188 235 419 387 289 191
390 279 561 491 46 57 87 104 90 104 3 1 -3 -45 -14 -101 -30 -156 -30 -502 1
-694 36 -227 90 -432 168 -640 l35 -96 -35 -131 c-58 -215 -70 -301 -70 -497
1 -323 51 -633 161 -990 98 -317 258 -667 382 -832 73 -99 69 -58 -23 222
-166 500 -242 837 -277 1228 -14 162 -7 523 13 602 l13 55 66 -100 c63 -96
130 -175 148 -175 34 0 14 83 -78 328 l-73 193 91 275 c142 429 162 520 215
1004 44 394 76 930 76 1257 l0 143 25 -10 c15 -6 34 -6 49 -1 l23 9 7 -256
c12 -454 37 -828 82 -1212 50 -434 67 -509 206 -931 l92 -277 -78 -208 c-75
-200 -103 -314 -77 -314 27 0 111 106 198 248 l20 34 12 -62 c23 -116 30 -290
21 -472 -25 -450 -100 -809 -291 -1380 -68 -204 -78 -248 -60 -248 6 0 30 28
54 63 196 274 400 808 481 1257 39 215 50 341 51 550 0 214 -15 316 -76 521
l-30 102 41 109 c85 227 145 476 176 728 20 162 15 443 -10 589 -9 52 -15 98
-14 103 2 4 32 -29 68 -74 89 -113 229 -257 319 -330 42 -34 162 -117 266
-186 281 -185 399 -311 478 -512 55 -141 71 -315 42 -455 -31 -148 -122 -275
-220 -309 -168 -58 -343 -8 -491 139 -96 96 -124 157 -131 285 -11 194 46 290
172 290 68 0 110 -22 135 -69 11 -23 27 -41 36 -41 35 0 35 82 0 135 -56 86
-244 128 -342 77 -121 -62 -186 -237 -164 -436 28 -238 174 -440 395 -541 90
-42 159 -58 254 -58 250 -1 439 148 531 419 33 97 34 103 35 264 0 139 -4 177
-22 245 -85 311 -214 473 -606 764 -255 189 -353 279 -492 453 -144 180 -465
650 -465 680 0 5 28 -14 63 -40 116 -91 263 -165 405 -204 110 -31 323 -31
437 0 274 75 483 261 561 498 27 82 29 100 29 239 0 130 -3 160 -24 225 -28
90 -49 132 -95 193 l-35 45 17 49 c12 36 16 88 16 208 1 186 -16 267 -104 515
-112 313 -123 351 -128 441 -4 72 -1 92 16 125 23 44 100 94 146 94 41 0 94
-26 151 -75 60 -51 97 -70 119 -62 40 16 -7 113 -87 183 -141 123 -301 115
-426 -21 -122 -134 -122 -267 -1 -641 90 -279 116 -459 90 -612 -12 -73 -13
-74 -39 -68 -166 39 -277 45 -362 20 -135 -40 -283 -149 -309 -229 -17 -50 -8
-139 17 -173 10 -15 36 -35 56 -45 31 -16 42 -17 72 -7 19 6 40 20 45 31 9 16
6 19 -17 24 -63 13 -78 27 -81 78 -8 116 108 193 308 204 98 6 182 -9 223 -39
16 -12 14 -19 -32 -93 -113 -183 -251 -292 -431 -341 -102 -27 -268 -24 -403
9 -179 44 -393 141 -403 183 -9 35 3 58 35 71 43 16 82 97 83 173 1 44 -5 69
-23 102 -19 32 -24 54 -21 88 4 44 6 47 58 74 29 16 70 46 90 68 l36 40 -8
242 c-13 356 -11 672 5 726 11 37 40 72 176 210 89 91 169 179 178 197 50 97
-7 216 -215 450 -193 217 -656 621 -770 673 -61 28 -96 25 -160 -14z m-287
-2825 c34 -35 37 -68 8 -105 -15 -19 -29 -26 -57 -26 -88 0 -114 106 -37 148
33 18 55 14 86 -17z m848 14 c73 -37 46 -145 -36 -145 -86 0 -109 118 -30 150
31 12 34 12 66 -5z m1482 -315 c25 -77 29 -207 9 -290 -35 -148 -154 -300
-281 -359 -112 -53 -179 -66 -334 -66 -159 0 -188 7 -315 83 -103 61 -318 222
-295 222 3 0 43 -10 88 -22 70 -20 107 -23 257 -23 156 0 183 3 250 23 216 68
391 211 524 426 41 65 62 92 68 84 4 -7 17 -42 29 -78z m-3809 3 c101 -169
242 -305 393 -379 125 -61 187 -75 350 -81 136 -5 212 4 365 43 21 6 18 0 -19
-32 -61 -54 -193 -148 -274 -195 -115 -68 -135 -73 -302 -73 -132 0 -160 3
-232 25 -45 14 -107 41 -138 60 -112 67 -205 195 -240 329 -24 93 -17 255 15
328 12 28 25 52 29 52 3 0 27 -35 53 -77z m1592 -590 c-26 -460 -58 -847 -100
-1178 -51 -416 -74 -533 -146 -762 l-43 -137 -13 45 c-29 97 -73 332 -88 474
-41 384 26 775 216 1250 49 124 165 375 173 375 2 0 3 -30 1 -67z m606 -73
c178 -381 287 -741 321 -1055 14 -132 6 -406 -16 -550 -19 -118 -74 -367 -84
-378 -8 -8 -80 214 -111 343 -21 88 -67 397 -94 625 -46 383 -102 1178 -83
1154 2 -2 32 -65 67 -139z"/>
</g>
</svg>
